<?xml version="1.0" encoding="UTF-8"?>
<!DOCTYPE svg PUBLIC "-//W3C//DTD SVG 1.1//EN" "http://www.w3.org/Graphics/SVG/1.1/DTD/svg11.dtd">
<svg xmlns="http://www.w3.org/2000/svg" version="1.1" width="373px" height="200px" style="shape-rendering:geometricPrecision; text-rendering:geometricPrecision; image-rendering:optimizeQuality; fill-rule:evenodd; clip-rule:evenodd" xmlns:xlink="http://www.w3.org/1999/xlink">
<g><path style="opacity:1" fill="#fefffe" d="M -0.5,-0.5 C 23.5,-0.5 47.5,-0.5 71.5,-0.5C 71.5,5.5 71.5,11.5 71.5,17.5C 54.5,17.5 37.5,17.5 20.5,17.5C 20.5,27.1667 20.5,36.8333 20.5,46.5C 36.1667,46.5 51.8333,46.5 67.5,46.5C 67.5,52.5 67.5,58.5 67.5,64.5C 51.8333,64.5 36.1667,64.5 20.5,64.5C 20.5,79.8333 20.5,95.1667 20.5,110.5C 13.5,110.5 6.5,110.5 -0.5,110.5C -0.5,73.5 -0.5,36.5 -0.5,-0.5 Z"/></g>
<g><path style="opacity:1" fill="#fefefe" d="M 170.5,10.5 C 176.833,10.5 183.167,10.5 189.5,10.5C 189.5,17.5 189.5,24.5 189.5,31.5C 196.833,31.5 204.167,31.5 211.5,31.5C 211.5,36.8333 211.5,42.1667 211.5,47.5C 204.167,47.5 196.833,47.5 189.5,47.5C 189.053,61.5729 189.553,75.5729 191,89.5C 192.319,91.4875 194.152,92.6541 196.5,93C 201.489,93.4993 206.489,93.6659 211.5,93.5C 211.5,99.1667 211.5,104.833 211.5,110.5C 200.572,111.755 190.238,109.921 180.5,105C 175.748,101.586 172.581,97.0864 171,91.5C 170.5,76.8371 170.333,62.1705 170.5,47.5C 166.5,47.5 162.5,47.5 158.5,47.5C 158.5,42.1667 158.5,36.8333 158.5,31.5C 162.5,31.5 166.5,31.5 170.5,31.5C 170.5,24.5 170.5,17.5 170.5,10.5 Z"/></g>
<g><path style="opacity:1" fill="#fdfdfe" d="M 109.5,29.5 C 119.901,28.6746 129.567,30.8412 138.5,36C 144.434,40.367 147.934,46.2003 149,53.5C 149.5,72.4971 149.667,91.4971 149.5,110.5C 143.167,110.5 136.833,110.5 130.5,110.5C 130.665,107.482 130.498,104.482 130,101.5C 116.801,111.814 102.634,113.648 87.5,107C 77.7014,97.3355 76.2014,86.5022 83,74.5C 87.2759,69.2276 92.7759,66.0609 99.5,65C 109.828,64.5002 120.161,64.3335 130.5,64.5C 132.765,54.0186 128.765,47.852 118.5,46C 113.655,45.3687 108.988,46.0354 104.5,48C 100.507,50.8194 98.8404,54.6527 99.5,59.5C 93.1667,59.5 86.8333,59.5 80.5,59.5C 80.2739,45.8797 86.6072,36.713 99.5,32C 102.991,31.262 106.325,30.4287 109.5,29.5 Z M 103.5,78.5 C 112.5,78.5 121.5,78.5 130.5,78.5C 130.777,81.4475 130.444,84.2809 129.5,87C 122.663,91.2568 115.33,94.0901 107.5,95.5C 99.8438,95.6786 96.6771,92.0119 98,84.5C 99.3597,81.9774 101.193,79.9774 103.5,78.5 Z"/></g>
<g><path style="opacity:1" fill="#fdfdfd" d="M 253.5,29.5 C 265.113,29.3112 274.947,33.3112 283,41.5C 285.81,45.4535 287.81,49.7868 289,54.5C 289.5,62.1594 289.666,69.8261 289.5,77.5C 272.5,77.5 255.5,77.5 238.5,77.5C 237.09,86.1933 240.424,92.0266 248.5,95C 254.253,95.8508 259.92,95.5174 265.5,94C 269.957,91.9206 271.957,88.4206 271.5,83.5C 277.5,83.5 283.5,83.5 289.5,83.5C 289.083,97.4295 282.083,106.263 268.5,110C 256.824,112.646 245.491,111.646 234.5,107C 225.728,101.626 220.894,93.7931 220,83.5C 218.922,72.3679 219.588,61.3679 222,50.5C 228.458,37.3595 238.958,30.3595 253.5,29.5 Z M 253.5,45.5 C 266.402,45.4004 272.402,51.7338 271.5,64.5C 260.5,64.5 249.5,64.5 238.5,64.5C 237.306,53.0469 242.306,46.7136 253.5,45.5 Z"/></g>
<g><path style="opacity:1" fill="#fcfdfd" d="M 372.5,53.5 C 372.5,56.5 372.5,59.5 372.5,62.5C 366.5,62.5 360.5,62.5 354.5,62.5C 353.399,49.5977 346.399,44.4311 333.5,47C 329.157,48.0095 325.99,50.5095 324,54.5C 322.026,65.1801 322.026,75.8468 324,86.5C 325.167,90.3333 327.667,92.8333 331.5,94C 337.755,95.1268 343.755,94.4601 349.5,92C 352.904,88.5716 354.571,84.405 354.5,79.5C 360.5,79.5 366.5,79.5 372.5,79.5C 372.5,82.5 372.5,85.5 372.5,88.5C 367.165,104.533 355.832,112.2 338.5,111.5C 312.698,110.02 301.365,96.3529 304.5,70.5C 301.488,44.831 312.821,31.1643 338.5,29.5C 355.796,29.5127 367.13,37.5127 372.5,53.5 Z"/></g>
</svg>
